<svg xmlns="http://www.w3.org/2000/svg" viewBox="0 0 100 100">
  <polygon points="50,5 95,25 95,75 50,95 5,75 5,25" fill="none" stroke="black" stroke-width="2"/>
  <polygon points="50,5 5,25 30,45 70,45 95,25" fill="none" stroke="black" stroke-width="1"/>
  <polygon points="5,75 30,55 70,55 95,75" fill="none" stroke="black" stroke-width="1"/>
  <line x1="30" y1="45" x2="30" y2="55" stroke="black" stroke-width="1"/>
  <line x1="70" y1="45" x2="70" y2="55" stroke="black" stroke-width="1"/>
  <line x1="50" y1="5" x2="50" y2="20" stroke="black" stroke-width="1"/>
  <line x1="50" y1="95" x2="50" y2="80" stroke="black" stroke-width="1"/>
  <line x1="5" y1="25" x2="20" y2="35" stroke="black" stroke-width="1"/>
  <line x1="95" y1="25" x2="80" y2="35" stroke="black" stroke-width="1"/>
  <line x1="5" y1="75" x2="20" y2="65" stroke="black" stroke-width="1"/>
  <line x1="95" y1="75" x2="80" y2="65" stroke="black" stroke-width="1"/>
  <text x="50" y="40" font-size="10" text-anchor="middle" dy=".3em">20</text>
</svg>
